<svg class="diagram-root" style="background: #f5f6f6" xmlns="http://www.w3.org/2000/svg" xmlns:xlink="http://www.w3.org/1999/xlink"><style>.diagram-root { font-family: "Helvetica Neue", sans-serif; font-size: 12px; } .t { overflow: visible; } .t-bg { y: 40; fill: #fff;   } .th { fill: #005aa0;   } .tht { fill: #fff; font-size: 14px;  } .tf { fill: #323c46; overflow: visible; } .tf.pk { fill: #005aa0; font-weight: bold; } .tf.fk { font-weight: bold; } .ty { fill: #adb1b5; font-weight: normal; text-anchor: end; } .r { fill: transparent; stroke: #c3c3c3; stroke-width: 1; } .l { stroke: 1; } .i { fill: #c2c7ce; stroke: #c2c7ce; } .i.ix { fill: #afb3b6; stroke: #000; } .fa { fill: transparent; overflow: visible; } .fa .bg.hover { fill: #f7f7f7; } .c { cy: 12; r: 4; stroke: #d2d2dc; fill: #d2d2dc; } .hr { fill: transparent; stroke: #323c46; stroke-opacity: 0.035; stroke-width: 13; } .dc { stroke: #fa5a3c; fill: #fa5a3c; } .x { stroke: white; stroke-width: 1; } .hl .th { fill: #1b9bff; } .hl .tht {  } .fhl .bg { fill: #e7f4ff; } .fhls .bg {  } .r.hl { stroke: #1b9bff; } .dim { opacity: 0.25; }</style><g class="drawing-wrapper" transform="translate(-34, 19) scale(1,1)"><g class="rs"><path d="M 257.37 165 m -1, 0 a 1,1 0 1,0 2,0 a 1,1 0 1,0 -2,0 M 257.37 165 m -0.5, 0 a 0.5,0.5 0 1,0 1,0 a 0.5,0.5 0 1,0 -1,0  M257.37 165 L257.37 165 269.37 165 M 257.37 171 m -1, 0 a 1,1 0 1,0 2,0 a 1,1 0 1,0 -2,0 M 257.37 171 m -0.5, 0 a 0.5,0.5 0 1,0 1,0 a 0.5,0.5 0 1,0 -1,0  M257.37 171 L257.37 171 264.37 165 257.37 159 M 257.37 159 m -1, 0 a 1,1 0 1,0 2,0 a 1,1 0 1,0 -2,0 M 257.37 159 m -0.5, 0 a 0.5,0.5 0 1,0 1,0 a 0.5,0.5 0 1,0 -1,0  M269.37 165 Q 287.78 165, 306.19 216.5 T 343 268 M 355 268 m -1, 0 a 1,1 0 1,0 2,0 a 1,1 0 1,0 -2,0 M 355 268 m -0.5, 0 a 0.5,0.5 0 1,0 1,0 a 0.5,0.5 0 1,0 -1,0  M355 268 L355 268 343 268 M349 274 L349 274 349 262" id="h291119146" class="r"></path><path d="M 747 80 m -1, 0 a 1,1 0 1,0 2,0 a 1,1 0 1,0 -2,0 M 747 80 m -0.5, 0 a 0.5,0.5 0 1,0 1,0 a 0.5,0.5 0 1,0 -1,0  M747 80 L747 80 735 80 M 747 86 m -1, 0 a 1,1 0 1,0 2,0 a 1,1 0 1,0 -2,0 M 747 86 m -0.5, 0 a 0.5,0.5 0 1,0 1,0 a 0.5,0.5 0 1,0 -1,0  M747 86 L747 86 740 80 747 74 M 747 74 m -1, 0 a 1,1 0 1,0 2,0 a 1,1 0 1,0 -2,0 M 747 74 m -0.5, 0 a 0.5,0.5 0 1,0 1,0 a 0.5,0.5 0 1,0 -1,0  M735 80 Q 707.3 80, 679.6 174 T 624.19 268 M 612.19 268 m -1, 0 a 1,1 0 1,0 2,0 a 1,1 0 1,0 -2,0 M 612.19 268 m -0.5, 0 a 0.5,0.5 0 1,0 1,0 a 0.5,0.5 0 1,0 -1,0  M612.19 268 L612.19 268 624.19 268 M618.19 274 L618.19 274 618.19 262" id="h3238165687" class="r"></path></g><g class="hrs"></g><g class="ts"><svg width="201.37" height="150" x="56" y="33" id="h2494299681" class="t"><rect height="40" width="201.37" class="th"></rect><text x="13" y="25" class="tht">Trainers</text><rect height="110" width="201.37" class="t-bg"></rect><text x="13" y="61" class="tf pk">Trainer_Id<tspan x="188.37" class="ty">INT</tspan></text><path d="M7,14A2,2 0 0,1 5,12A2,2 0 0,1 7,10A2,2 0 0,1 9,12A2,2 0 0,1 7,14M12.65,10C11.83,7.67 9.61,6 7, 6A6, 6 0 0, 0 1, 12A6, 6 0 0, 0 7, 18C9.61, 18 11.83, 16.33 12.65, 14H17V18H21V14H23V10H12.65Z" class="i pk" transform="translate(149.039921875, 48) scale(0.65)"></path><text x="13" y="86" class="tf">Trainer_Name<tspan x="188.37" class="ty">VARCHAR(50)</tspan></text><text x="13" y="111" class="tf">Trainer_Phone<tspan x="188.37" class="ty">INT</tspan></text><text x="13" y="136" class="tf fk">GYM_ID<tspan x="188.37" class="ty">INT</tspan></text></svg><svg width="257.19" height="275" x="355" y="11" id="h4229917658" class="t"><rect height="40" width="257.19" class="th"></rect><text x="13" y="25" class="tht">Members</text><rect height="235" width="257.19" class="t-bg"></rect><text x="13" y="61" class="tf pk">Member_ID<tspan x="244.19" class="ty">INT</tspan></text><path d="M7,14A2,2 0 0,1 5,12A2,2 0 0,1 7,10A2,2 0 0,1 9,12A2,2 0 0,1 7,14M12.65,10C11.83,7.67 9.61,6 7, 6A6, 6 0 0, 0 1, 12A6, 6 0 0, 0 7, 18C9.61, 18 11.83, 16.33 12.65, 14H17V18H21V14H23V10H12.65Z" class="i pk" transform="translate(204.859921875, 48) scale(0.65)"></path><text x="13" y="86" class="tf">Member_Name<tspan x="244.19" class="ty">VARCHAR(50)</tspan></text><text x="13" y="111" class="tf">Member_Phone<tspan x="244.19" class="ty">INT</tspan></text><text x="13" y="136" class="tf">Member_Street_address<tspan x="244.19" class="ty">VARCHAR(50)</tspan></text><text x="13" y="161" class="tf">Member_Zip<tspan x="244.19" class="ty">INT</tspan></text><text x="13" y="186" class="tf">Member_email<tspan x="244.19" class="ty">VARCHAR(50)</tspan></text><text x="13" y="211" class="tf">Member_DOB<tspan x="244.19" class="ty">INT</tspan></text><text x="13" y="236" class="tf">Member_Membership_Date<tspan x="244.19" class="ty">INT</tspan></text><text x="13" y="261" class="tf fk">GYM_ID<tspan x="244.19" class="ty">INT</tspan></text></svg><svg width="271.16" height="175" x="747" y="23" id="h2227775538" class="t"><rect height="40" width="271.16" class="th"></rect><text x="13" y="25" class="tht">Gym</text><rect height="135" width="271.16" class="t-bg"></rect><text x="13" y="61" class="tf pk">GYM_ID<tspan x="258.16" class="ty">INT</tspan></text><path d="M7,14A2,2 0 0,1 5,12A2,2 0 0,1 7,10A2,2 0 0,1 9,12A2,2 0 0,1 7,14M12.65,10C11.83,7.67 9.61,6 7, 6A6, 6 0 0, 0 1, 12A6, 6 0 0, 0 7, 18C9.61, 18 11.83, 16.33 12.65, 14H17V18H21V14H23V10H12.65Z" class="i pk" transform="translate(218.82992187500003, 48) scale(0.65)"></path><text x="13" y="86" class="tf">GYM_NAME<tspan x="258.16" class="ty">VARCHAR(50)</tspan></text><text x="13" y="111" class="tf">GYM_STREET_ADDRESS<tspan x="258.16" class="ty">VARCHAR(50)</tspan></text><text x="13" y="136" class="tf">GYM_ZIP<tspan x="258.16" class="ty">INT</tspan></text><text x="13" y="161" class="tf">GYM_PHONE<tspan x="258.16" class="ty">ZIP</tspan></text></svg></g></g><text class="qdbd-link" x="10" y="20">www.quickdatabasediagrams.com</text></svg>